# xmcd
#
# Track frame offsets: 
#        183
#        21305
#        49578
#        75695
#        96038
#        115835
#        137373
#        155218
#        173343
#
# Disc length: 2565 seconds
#
# Revision: 2
# Processed by: cddbd v1.5.2PL0 Copyright (c) Steve Scherf et al.
# Submitted via: ExactAudioCopy v1.3
#
DISCID=650a0309
DTITLE=Michael Cooper - Love Is Such a Funny Game
DYEAR=1987
DGENRE=Funk
TTITLE0=To Prove My Love
TTITLE1=You've Got A Friend
TTITLE2=Dinner For Two
TTITLE3=Just Thinkin' 'Bout Cha
TTITLE4=No Other Lover
TTITLE5=Oceans Wide
TTITLE6=Love Is Such A Funny Game
TTITLE7=Quickness
TTITLE8=Look Before You Leave
EXTD=
EXTT0=
EXTT1=
EXTT2=
EXTT3=
EXTT4=
EXTT5=
EXTT6=
EXTT7=
EXTT8=
PLAYORDER=
